<mxfile host="app.diagrams.net" agent="Mozilla/5.0 (Windows NT 10.0; Win64; x64) AppleWebKit/537.36 (KHTML, like Gecko) Chrome/128.0.0.0 Safari/537.36" version="24.7.13">
  <diagram name="Page-1" id="8NO4UhV_MSYCA_wIA7uw">
    <mxGraphModel dx="1098" dy="1131" grid="1" gridSize="10" guides="1" tooltips="1" connect="1" arrows="1" fold="1" page="1" pageScale="1" pageWidth="850" pageHeight="1100" math="0" shadow="0">
      <root>
        <mxCell id="0" />
        <mxCell id="1" parent="0" />
        <mxCell id="ViMoTbhP_mKktjsOBwAl-1" value="Start" style="rounded=1;whiteSpace=wrap;html=1;" vertex="1" parent="1">
          <mxGeometry x="320" y="40" width="160" height="60" as="geometry" />
        </mxCell>
        <mxCell id="ViMoTbhP_mKktjsOBwAl-8" value="" style="endArrow=classic;html=1;rounded=0;edgeStyle=orthogonalEdgeStyle;exitX=0.5;exitY=1;exitDx=0;exitDy=0;" edge="1" parent="1" source="ViMoTbhP_mKktjsOBwAl-1">
          <mxGeometry relative="1" as="geometry">
            <mxPoint x="400" y="120" as="sourcePoint" />
            <mxPoint x="180" y="200" as="targetPoint" />
            <Array as="points">
              <mxPoint x="400" y="120" />
              <mxPoint x="180" y="120" />
            </Array>
          </mxGeometry>
        </mxCell>
        <mxCell id="ViMoTbhP_mKktjsOBwAl-9" value="" style="shape=message;html=1;outlineConnect=0;" vertex="1" parent="ViMoTbhP_mKktjsOBwAl-8">
          <mxGeometry width="20" height="14" relative="1" as="geometry">
            <mxPoint x="36" y="-7" as="offset" />
          </mxGeometry>
        </mxCell>
        <mxCell id="ViMoTbhP_mKktjsOBwAl-14" value="picking up&amp;nbsp;&lt;div&gt;Jorge #1&lt;/div&gt;" style="whiteSpace=wrap;html=1;aspect=fixed;" vertex="1" parent="1">
          <mxGeometry x="140" y="200" width="80" height="80" as="geometry" />
        </mxCell>
        <mxCell id="ViMoTbhP_mKktjsOBwAl-17" value="" style="endArrow=none;html=1;rounded=0;" edge="1" parent="1">
          <mxGeometry width="50" height="50" relative="1" as="geometry">
            <mxPoint x="400" y="120" as="sourcePoint" />
            <mxPoint x="400" y="120" as="targetPoint" />
          </mxGeometry>
        </mxCell>
        <mxCell id="ViMoTbhP_mKktjsOBwAl-21" value="picking up&amp;nbsp;&lt;div&gt;Jose #2&lt;/div&gt;" style="whiteSpace=wrap;html=1;aspect=fixed;" vertex="1" parent="1">
          <mxGeometry x="600" y="200" width="80" height="80" as="geometry" />
        </mxCell>
        <mxCell id="ViMoTbhP_mKktjsOBwAl-42" value="picking up&amp;nbsp;&lt;div&gt;Domingo #3&lt;/div&gt;" style="whiteSpace=wrap;html=1;aspect=fixed;" vertex="1" parent="1">
          <mxGeometry x="140" y="360" width="80" height="80" as="geometry" />
        </mxCell>
        <mxCell id="ViMoTbhP_mKktjsOBwAl-43" value="picking up&amp;nbsp;&lt;div&gt;Bernardo #4&lt;/div&gt;" style="whiteSpace=wrap;html=1;aspect=fixed;" vertex="1" parent="1">
          <mxGeometry x="600" y="360" width="80" height="80" as="geometry" />
        </mxCell>
        <mxCell id="ViMoTbhP_mKktjsOBwAl-44" value="" style="endArrow=classic;html=1;rounded=0;entryX=0;entryY=0.5;entryDx=0;entryDy=0;exitX=1;exitY=0.5;exitDx=0;exitDy=0;" edge="1" parent="1" source="ViMoTbhP_mKktjsOBwAl-14" target="ViMoTbhP_mKktjsOBwAl-21">
          <mxGeometry relative="1" as="geometry">
            <mxPoint x="340" y="239.5" as="sourcePoint" />
            <mxPoint x="440" y="239.5" as="targetPoint" />
          </mxGeometry>
        </mxCell>
        <mxCell id="ViMoTbhP_mKktjsOBwAl-45" value="" style="shape=message;html=1;outlineConnect=0;" vertex="1" parent="ViMoTbhP_mKktjsOBwAl-44">
          <mxGeometry width="20" height="14" relative="1" as="geometry">
            <mxPoint x="-10" y="-7" as="offset" />
          </mxGeometry>
        </mxCell>
        <mxCell id="ViMoTbhP_mKktjsOBwAl-46" value="" style="endArrow=classic;html=1;rounded=0;edgeStyle=elbowEdgeStyle;elbow=vertical;exitX=0.5;exitY=1;exitDx=0;exitDy=0;entryX=0.5;entryY=0;entryDx=0;entryDy=0;" edge="1" parent="1" source="ViMoTbhP_mKktjsOBwAl-21" target="ViMoTbhP_mKktjsOBwAl-42">
          <mxGeometry relative="1" as="geometry">
            <mxPoint x="410" y="350" as="sourcePoint" />
            <mxPoint x="510" y="350" as="targetPoint" />
          </mxGeometry>
        </mxCell>
        <mxCell id="ViMoTbhP_mKktjsOBwAl-47" value="" style="shape=message;html=1;outlineConnect=0;" vertex="1" parent="ViMoTbhP_mKktjsOBwAl-46">
          <mxGeometry width="20" height="14" relative="1" as="geometry">
            <mxPoint x="-10" y="-7" as="offset" />
          </mxGeometry>
        </mxCell>
        <mxCell id="ViMoTbhP_mKktjsOBwAl-50" value="" style="endArrow=classic;html=1;rounded=0;entryX=0;entryY=0.5;entryDx=0;entryDy=0;" edge="1" parent="1" source="ViMoTbhP_mKktjsOBwAl-42" target="ViMoTbhP_mKktjsOBwAl-43">
          <mxGeometry relative="1" as="geometry">
            <mxPoint x="230" y="400" as="sourcePoint" />
            <mxPoint x="460" y="390" as="targetPoint" />
          </mxGeometry>
        </mxCell>
        <mxCell id="ViMoTbhP_mKktjsOBwAl-51" value="" style="shape=message;html=1;outlineConnect=0;" vertex="1" parent="ViMoTbhP_mKktjsOBwAl-50">
          <mxGeometry width="20" height="14" relative="1" as="geometry">
            <mxPoint x="-10" y="-7" as="offset" />
          </mxGeometry>
        </mxCell>
        <mxCell id="ViMoTbhP_mKktjsOBwAl-52" value="" style="endArrow=classic;html=1;rounded=0;exitX=0.5;exitY=1;exitDx=0;exitDy=0;" edge="1" parent="1" source="ViMoTbhP_mKktjsOBwAl-43">
          <mxGeometry width="50" height="50" relative="1" as="geometry">
            <mxPoint x="580" y="620" as="sourcePoint" />
            <mxPoint x="400" y="600" as="targetPoint" />
            <Array as="points">
              <mxPoint x="640" y="520" />
              <mxPoint x="400" y="520" />
            </Array>
          </mxGeometry>
        </mxCell>
        <mxCell id="ViMoTbhP_mKktjsOBwAl-53" value="Go" style="triangle;whiteSpace=wrap;html=1;direction=south;" vertex="1" parent="1">
          <mxGeometry x="360" y="600" width="80" height="60" as="geometry" />
        </mxCell>
      </root>
    </mxGraphModel>
  </diagram>
</mxfile>
